<svg xmlns="http://www.w3.org/2000/svg" viewBox="0 0 100.19 121.79"><defs><style>.cls-1{fill:#fbb03b;stroke:#f7931e;stroke-miterlimit:10;stroke-width:7px;}.cls-2{fill:#f7931e;}.cls-3{fill:#fff;}</style></defs><title>Asset 1</title><g id="Layer_2" data-name="Layer 2"><g id="Layer_1-2" data-name="Layer 1"><path class="cls-1" d="M79,96.53,50.1,117.47,21.15,96.53A42.65,42.65,0,0,1,3.5,62V24.27L50.1,3.82l46.6,20.45V62A42.65,42.65,0,0,1,79,96.53Z"/><rect class="cls-2" x="2.9" y="42.42" width="94.4" height="18.22"/><rect class="cls-2" x="-2.9" y="51.08" width="106" height="19.13" transform="translate(110.74 10.55) rotate(90)"/><path class="cls-3" d="M50.19,60.43,29,53.81a.68.68,0,0,0-.76.26,17.5,17.5,0,0,0-2.83,11.25.66.66,0,0,0,.55.59,162.85,162.85,0,0,1,23.73,6,.65.65,0,0,0,.4,0,163.11,163.11,0,0,1,23.86-5.45.66.66,0,0,0,.56-.57A17.76,17.76,0,0,0,72,54.5a.68.68,0,0,0-.76-.27l-20.61,6.2A.67.67,0,0,1,50.19,60.43Z"/><path class="cls-3" d="M50.3,59.13,5,45a.21.21,0,0,1,0-.4L49.78,31.1a.21.21,0,0,1,.12,0L95.22,45.24a.21.21,0,0,1,0,.4L50.42,59.13A.21.21,0,0,1,50.3,59.13Z"/><rect class="cls-3" x="11.77" y="59.13" width="22.42" height="0.52" transform="translate(-36.58 81.93) rotate(-89.59)"/><path class="cls-3" d="M22.93,65.18C22.31,68.91,21.65,72.64,21,76a4.74,4.74,0,0,0,3.63,0C24.11,72.64,23.51,68.92,22.93,65.18Z"/></g></g></svg>